<?xml version="1.0" encoding="utf-8"?>
<svg id="master-artboard" viewBox="0 0 128 128" version="1.1" xmlns="http://www.w3.org/2000/svg" x="0px" y="0px" style="enable-background:new 0 0 1400 980;" width="128px" height="128px"><rect id="ee-background" x="0" y="0" width="128" height="128" style="fill: white; fill-opacity: 0; pointer-events: none;"/><path d="M78,53H57c-1.1,0-2,0.9-2,2v7H45v-7c0-1.1-0.9-2-2-2H22c-1.1,0-2,0.9-2,2v17c0,1.1,0.9,2,2,2h21c1.1,0,2-0.9,2-2v-6h10v6  c0,1.1,0.9,2,2,2h21c1.1,0,2-0.9,2-2V55C80,53.9,79.1,53,78,53z M41,70H24V57h17V70z M76,70H59V57h17V70z M90,44H78V17.5  c0-5.2-4.3-9.5-9.6-9.5h-0.8c-4.8,0-9.7,1.2-14.6,3.6c-1.8,0.9-4,0.9-5.9,0C42.1,9.2,37.2,8,32.4,8h-0.7c-5.4,0-9.7,4.2-9.7,9.5V44  H10c-1.1,0-2,0.9-2,2s0.9,2,2,2h14h52h14c1.1,0,2-0.9,2-2S91.1,44,90,44z M74,44H26V17.5c0-3.1,2.5-5.5,5.7-5.5h0.7  c4.2,0,8.5,1.1,12.9,3.2c2.9,1.4,6.4,1.4,9.3,0c4.4-2.1,8.7-3.2,12.9-3.2h0.8c3.1,0,5.6,2.4,5.6,5.5V44z M58,90c0,1.1-0.9,2-2,2H44  c-1.1,0-2-0.9-2-2s0.9-2,2-2h12C57.1,88,58,88.9,58,90z" transform="matrix(1.5238094329833984, 0, 0, 1.523809552192688, -12.30318832397461, -11.891743659973145)" style="fill: rgb(255, 255, 255);"/></svg>