<svg version="1" xmlns="http://www.w3.org/2000/svg" width="682.667" height="682.667" viewBox="0 0 512.000000 512.000000"><path d="M131.2 2.6C110 7.1 92.8 23.2 87 44.1c-1.9 7.1-2 9.9-2 91.9v84.6l-36.2-.1c-20 0-37.9.3-39.8.7-10.2 2.1-12.3 16-3.4 21.9C8.4 245 13 245 255.3 245c213.6 0 247.2-.2 249.6-1.4 8.3-4.3 8.6-16 .5-21.3-2.3-1.5-6.6-1.7-40.8-1.7l-38.1-.1-.1-81.1c-.1-44.6-.4-83.9-.8-87.4C422.9 28.6 404 8.1 380 2.6c-6.4-1.5-31.8-1.6-38-.2-1.4.3-4.3.7-6.5 1-16.6 2.1-37.2 8.5-58.8 18.3-15.5 7.1-26.5 7.1-41.9 0-14.5-6.7-35.5-13.9-47.3-16.2-20-4-45.2-5.3-56.3-2.9zM163 26.4c20.3 2.3 37 6.9 59.5 16.6 16.9 7.3 20.3 8.2 33 8.2 10.7 0 18.5-2 33.5-8.5 26.7-11.6 47.9-16.6 73.4-17.1 15.1-.4 25 4 32.7 14.4 2.6 3.5 5.1 9.7 5.6 13.5.2 1.7.5 121.5.3 156v11.1H109.2l.1-84.6.2-84.5 3.3-6.7c8-16.3 22.1-21.4 50.2-18.4zM81.2 276.2c-1.8.5-4.3 2.4-5.8 4.4l-2.7 3.5v55.3l-.1 55.3 2.3 3.2c1.3 1.7 3.6 3.7 5.3 4.4 2.2.9 19.5 1.2 69.6 1.2 63.3-.1 66.8-.2 69.5-1.9 5.2-3.5 5.7-5.7 5.7-27.1 0-17.9.1-19.5 1.8-19.6 1.8-.1 57.1 0 58.5 0 .4.1.7 8.6.7 19 0 10.7.5 20.2 1 21.7 1.4 3.5 5.6 7.1 8.9 7.6 1.4.2 32.1.3 68.2.3 60.6 0 65.8-.2 68.2-1.8 6.4-4.2 6.1-1.5 6.2-62.2 0-60.7.3-58-6.2-62.2-2.5-1.7-7.4-1.8-70.3-1.8-64.3 0-67.6.1-70.3 1.9-4.9 3.3-5.2 4.6-5.7 29.5l-.5 23.5h-30l-30-.1-.5-23.4c-.5-24.9-.8-26.2-5.7-29.5-2.7-1.8-6-1.9-68.9-1.9-36.4 0-67.5.3-69.2.7zM192.6 300h8v39.2l-.1 39.3-51.7.3-51.8.2v-78.9l3.8-.3c3.1-.3 22.4-.2 91.8.2zm218.2 0h3.2v79H310.4l.1-39.3v-39.2l3-.5c2.3-.4 71.7-.4 97.3 0zM212.8 490.6c-7 3.7-7.8 14.5-1.4 19.6 1.9 1.6 5.8 1.8 44.4 1.8h42.4l2.9-3.1c1.6-1.7 2.9-3.9 3-4.8.4-6.3-1.8-11.4-6.1-13.6-4.3-2.2-81.1-2.2-85.2.1z"/></svg>